<svg width="156" height="104" viewBox="0 0 156 104" xmlns="http://www.w3.org/2000/svg" xmlns:xlink="http://www.w3.org/1999/xlink">
    <defs>
        <path id="x49v9g9joa" d="M0 0h155.94v37.75H0z"/>
        <path id="vstxpphrdc" d="M0 0h19.305v14.628H0z"/>
    </defs>
    <g fill="none" fill-rule="evenodd">
        <path d="M83.396 25.748c3.13-.844 4.179-3.66 4.179-5.636 0-2.709-1.32-4.715-3.764-5.731-1.257-.522-2.728-.73-4.775-.73h-6.434v19.733h4.48v-6.795h.455c.897 0 1.7.303 2.385.987 1.35 1.348 2.755 3.793 3.724 5.61l.104.198h5.195l-.333-.543c-.623-1.021-3.42-5.522-5.216-7.093zm-1.477-3.283c-.654.418-1.507.531-2.562.531H77.08V17.44h2.374c.898 0 1.827.13 2.526.573.71.448 1.14 1.215 1.14 2.116 0 1.08-.494 1.883-1.202 2.337zM99.44 13.307c-2.785 0-5.16.884-6.878 2.536-1.905 1.834-2.905 4.485-2.89 7.688 0 6.127 3.926 10.247 9.768 10.247 5.825 0 9.703-4.12 9.703-10.25 0-6.21-3.788-10.221-9.703-10.221zm5.107 10.221c0 3.82-1.94 6.29-5.107 6.29-3.184 0-5.17-2.47-5.17-6.29s1.986-6.288 5.17-6.288c3.167 0 5.107 2.469 5.107 6.288zM122.754 13.65l-5.672 8.705-2.576-8.704h-4.654l4.212 12.918-4.68 6.815h5.008l13.414-19.733h-5.052M147.496 29.598V13.65h-4.48v19.733h11.368l1.602-3.786h-8.49M139.098 13.65h-6.048l-13.67 19.734h5.028l3.177-4.849h7.032v4.849h4.48V13.65zm-9.013 11.168 4.532-6.837v6.837h-4.532zM62.043 50.448c3.129-.846 4.177-3.661 4.177-5.637 0-2.708-1.32-4.714-3.765-5.73-1.254-.522-2.726-.73-4.773-.73h-6.434v19.732h4.48v-6.794h.454c.898 0 1.7.303 2.386.987 1.349 1.347 2.756 3.793 3.724 5.611l.104.196h5.195l-.332-.543c-.624-1.022-3.422-5.52-5.216-7.092zm-1.478-3.282c-.654.418-1.508.53-2.562.53h-2.276v-5.557h2.374c.897 0 1.827.129 2.527.573.708.447 1.14 1.215 1.14 2.116 0 1.08-.494 1.883-1.203 2.338zM117.868 50.448c3.128-.846 4.177-3.661 4.177-5.637 0-2.708-1.32-4.714-3.764-5.73-1.255-.522-2.728-.73-4.774-.73h-6.434v19.732h4.48v-6.794h.453c.898 0 1.702.303 2.386.987 1.35 1.347 2.757 3.793 3.725 5.611l.105.196h5.192l-.33-.543c-.624-1.022-3.422-5.52-5.216-7.092zm-1.477-3.282c-.655.418-1.509.53-2.563.53h-2.276v-5.557h2.375c.897 0 1.826.129 2.525.573.709.447 1.14 1.215 1.14 2.116 0 1.08-.492 1.883-1.201 2.338zM94.984 38.036c-2.784 0-5.161.885-6.879 2.537-1.904 1.835-2.906 4.486-2.889 7.688 0 6.128 3.926 10.248 9.768 10.248 5.825 0 9.702-4.12 9.702-10.25 0-6.21-3.785-10.223-9.702-10.223zm5.106 10.224c0 3.82-1.94 6.289-5.106 6.289-3.185 0-5.17-2.47-5.17-6.29 0-3.821 1.985-6.29 5.17-6.29 3.165 0 5.106 2.469 5.106 6.29zM38.977 38.35h-6.046L19.26 58.083h5.027l3.177-4.848h7.032v4.848h4.48V38.35zm-9.012 11.168 4.532-6.838v6.838h-4.532zM42.714 58.083h4.48V38.35h-4.48zM77.074 42.153h7.149l1.983-3.803H72.602v19.752h4.472v-7.987h5.491v-3.776h-5.49v-4.186M135.633 54.546c-1.53 0-3.174-.369-4.235-1.028-1.704-1.059-2.705-2.984-2.705-5.367 0-1.432.394-2.865 1.329-4.032 1.047-1.307 2.803-2.073 5.079-2.073 1.396 0 2.623.144 4.304.567V38.6c-1.666-.402-3.077-.59-4.827-.59-2.563 0-5.614.814-7.616 2.774-1.925 1.885-2.937 4.558-2.937 7.394 0 3.266 1.276 6.145 3.371 7.937 2.063 1.764 5.116 2.36 7.66 2.36 1.762 0 3.701-.283 4.814-.644v-3.838a16.42 16.42 0 0 1-4.237.553M147.486 54.294v-4.352h5.421v-3.775h-5.42v-4.014h7.004L156 38.35h-12.993v19.752h12.228v-3.808h-7.749M50.762 0c9.399 0 17.044 7.5 17.044 16.84 0 9.339-7.645 16.84-17.044 16.84-9.398 0-17.042-7.501-17.042-16.84C33.72 7.5 41.364 0 50.762 0" fill="#042545"/>
        <path d="M50.762 5.613c6.276 0 11.362 5.026 11.362 11.227 0 6.2-5.086 11.227-11.362 11.227-6.274 0-11.361-5.027-11.361-11.227S44.488 5.613 50.76 5.613" fill="#FFFFFE"/>
        <path d="M50.762 11.227c3.138 0 5.681 2.513 5.681 5.613 0 3.1-2.543 5.613-5.681 5.613-3.137 0-5.681-2.513-5.681-5.613 0-3.1 2.544-5.613 5.68-5.613" fill="#C92237"/>
        <path d="m11.203 74.404-1.246-4.192c-.356-1.172-.712-2.639-1.01-3.81H8.89c-.297 1.171-.593 2.667-.92 3.81l-1.187 4.192h4.421zM6.13 77.746l-1.424 5.072H.048L6.13 63.06h5.934l6.23 19.758h-4.896l-1.543-5.072H6.13zM20.962 82.818h4.51V63.06h-4.51zM33.867 71.825h1.78c2.254 0 3.589-1.115 3.589-2.844 0-1.789-1.246-2.725-3.323-2.725-1.097 0-1.72.057-2.046.146v5.423zm-4.48-8.502c1.453-.234 3.59-.41 6.022-.41 2.967 0 5.044.44 6.468 1.554 1.216.938 1.87 2.345 1.87 4.162 0 2.492-1.81 4.222-3.531 4.838v.087c1.393.557 2.165 1.848 2.67 3.665.622 2.257 1.216 4.837 1.602 5.599H39.86c-.297-.587-.802-2.17-1.364-4.603-.564-2.492-1.425-3.136-3.293-3.165h-1.336v7.768h-4.48V63.323zM67.626 82.29c-.8.38-2.7.85-5.103.85-6.912 0-10.472-4.28-10.472-9.907 0-6.742 4.865-10.465 10.918-10.465 2.343 0 4.124.438 4.924.878l-.95 3.518c-.889-.38-2.165-.733-3.796-.733-3.56 0-6.35 2.14-6.35 6.537 0 3.957 2.374 6.45 6.38 6.45 1.393 0 2.877-.265 3.797-.645l.652 3.517M80.649 74.404l-1.246-4.192c-.356-1.172-.712-2.639-1.01-3.81h-.058c-.297 1.171-.594 2.667-.92 3.81l-1.186 4.192h4.42zm-5.073 3.342-1.423 5.072h-4.66l6.083-19.758h5.933l6.23 19.758h-4.895l-1.543-5.072h-5.725zM94.887 79.447c.386.088 1.04.088 1.573.088 4.124.029 6.824-2.198 6.824-6.92 0-4.102-2.432-6.271-6.35-6.271-.978 0-1.66.087-2.047.175v12.928zm-4.509-16.093c1.662-.265 3.828-.44 6.082-.44 3.827 0 6.32.703 8.219 2.11 2.076 1.524 3.381 3.957 3.381 7.445 0 3.783-1.394 6.392-3.293 8.005-2.107 1.728-5.34 2.549-9.255 2.549-2.346 0-4.036-.146-5.134-.294V63.354zM122.923 74.464h-7.358v4.69h8.217v3.664h-12.726V63.06h12.31v3.664h-7.801v4.104h7.358v3.636M130.902 66.812h-5.4V63.06h15.367v3.752h-5.458v16.006h-4.51V66.812" fill="#042545"/>
        <g transform="translate(0 62.768)">
            <mask id="t76hngdtab" fill="#fff">
                <use xlink:href="#x49v9g9joa"/>
            </mask>
            <path d="M143.153 15.447c1.187.615 3.086 1.232 5.014 1.232 2.077 0 3.173-.85 3.173-2.14 0-1.231-.948-1.934-3.351-2.756-3.323-1.172-5.518-2.99-5.518-5.863 0-3.37 2.877-5.92 7.565-5.92 2.285 0 3.915.438 5.102.995l-1.009 3.577c-.77-.38-2.222-.938-4.153-.938-1.957 0-2.907.908-2.907 1.905 0 1.26 1.098 1.817 3.708 2.786 3.53 1.289 5.162 3.106 5.162 5.89 0 3.313-2.551 6.127-8.04 6.127-2.284 0-4.538-.614-5.666-1.23l.92-3.665M3.792 26.604v2.332H5.74v1.978H3.792v3.126c0 1.043.269 1.52 1.073 1.52.375 0 .554-.017.804-.07l.017 2.03c-.338.123-1 .23-1.75.23-.877 0-1.61-.3-2.057-.741-.5-.514-.75-1.343-.75-2.562v-3.533H-.033v-1.978H1.13v-1.607l2.663-.725" fill="#042545" mask="url(#t76hngdtab)"/>
        </g>
        <path d="M7.314 87.802h2.717v4.944h.036a2.928 2.928 0 0 1 1.072-.9c.41-.213.911-.337 1.412-.337 1.734 0 3.057 1.185 3.057 3.798v5.034h-2.717V95.59c0-1.132-.394-1.908-1.412-1.908-.715 0-1.163.46-1.359.954-.072.159-.09.388-.09.583v5.122H7.315v-12.54M23.08 95.042c0-.654-.286-1.749-1.536-1.749-1.145 0-1.61 1.042-1.682 1.749h3.218zm-3.2 1.838c.072 1.113 1.198 1.641 2.467 1.641.93 0 1.68-.123 2.413-.37l.358 1.819c-.894.371-1.985.547-3.164.547-2.967 0-4.665-1.695-4.665-4.397 0-2.19 1.376-4.61 4.415-4.61 2.824 0 3.896 2.172 3.896 4.309 0 .46-.054.866-.09 1.06h-5.63zM30.838 94.458c0-1.076-.035-1.977-.07-2.754h2.359l.125 1.2h.053c.359-.564 1.233-1.395 2.698-1.395 1.789 0 3.13 1.185 3.13 3.727v5.105h-2.717v-4.787c0-1.113-.394-1.872-1.376-1.872-.751 0-1.199.513-1.396 1.006-.07.177-.09.423-.09.672v4.981h-2.716v-5.883M46.605 95.042c0-.654-.286-1.749-1.537-1.749-1.144 0-1.61 1.042-1.68 1.749h3.217zm-3.2 1.838c.072 1.113 1.197 1.641 2.466 1.641.93 0 1.681-.123 2.414-.37l.357 1.819c-.894.371-1.984.547-3.163.547-2.968 0-4.666-1.695-4.666-4.397 0-2.19 1.376-4.61 4.415-4.61 2.824 0 3.897 2.172 3.897 4.309 0 .46-.054.866-.09 1.06h-5.63zM52.61 91.704l.86 1.448c.25.441.482.866.714 1.289h.036c.232-.476.447-.9.68-1.324l.768-1.413h2.949l-2.878 4.115 2.915 4.522h-3.076l-.874-1.555c-.252-.423-.466-.864-.68-1.306h-.053c-.215.459-.448.883-.663 1.306l-.822 1.555H49.5l2.968-4.398-2.896-4.24h3.038" fill="#042545"/>
        <g transform="translate(59.261 89.372)">
            <mask id="skj6zw9nvd" fill="#fff">
                <use xlink:href="#vstxpphrdc"/>
            </mask>
            <path d="M3.824 0v2.332h1.95V4.31h-1.95v3.126c0 1.043.27 1.52 1.073 1.52.377 0 .554-.017.806-.07l.017 2.029c-.34.123-1.002.23-1.752.23-.876 0-1.608-.3-2.056-.74-.5-.514-.75-1.344-.75-2.563V4.31H0V2.332h1.162V.724L3.824 0M16.516 5.847c0-.16-.018-.336-.053-.494-.196-.708-.715-1.183-1.466-1.183-1 0-1.787.881-1.787 2.454 0 1.288.644 2.295 1.77 2.295.714 0 1.269-.459 1.447-1.077.071-.212.09-.494.09-.724V5.847zm2.718 3.867c0 1.66-.34 3.021-1.341 3.886-.947.812-2.252 1.06-3.54 1.06-1.161 0-2.359-.23-3.145-.653l.536-2.05c.554.319 1.502.655 2.538.655 1.287 0 2.27-.673 2.27-2.28v-.547h-.036c-.518.707-1.358 1.113-2.358 1.113-2.164 0-3.701-1.731-3.701-4.204 0-2.79 1.805-4.557 3.968-4.557 1.197 0 1.948.513 2.394 1.236h.037l.09-1.041h2.359a37.777 37.777 0 0 0-.071 2.578v4.804z" fill="#042545" mask="url(#skj6zw9nvd)"/>
        </g>
        <path d="M85.966 95.042c0-.654-.285-1.749-1.537-1.749-1.144 0-1.608 1.042-1.68 1.749h3.217zm-3.199 1.838c.071 1.113 1.197 1.641 2.468 1.641.928 0 1.679-.123 2.411-.37l.36 1.819c-.895.371-1.985.547-3.166.547-2.967 0-4.664-1.695-4.664-4.397 0-2.19 1.376-4.61 4.413-4.61 2.825 0 3.898 2.172 3.898 4.309 0 .46-.053.866-.09 1.06h-5.63zM90.114 94.458c0-1.076-.036-1.977-.071-2.754h2.36l.124 1.2h.054c.357-.564 1.233-1.395 2.699-1.395 1.787 0 3.128 1.185 3.128 3.727v5.105h-2.716v-4.787c0-1.113-.394-1.872-1.377-1.872-.75 0-1.197.513-1.395 1.006-.072.177-.09.423-.09.672v4.981h-2.716v-5.883M105.88 95.042c0-.654-.286-1.749-1.537-1.749-1.143 0-1.608 1.042-1.68 1.749h3.217zm-3.2 1.838c.073 1.113 1.198 1.641 2.468 1.641.93 0 1.679-.123 2.413-.37l.357 1.819c-.894.371-1.984.547-3.163.547-2.967 0-4.666-1.695-4.666-4.397 0-2.19 1.377-4.61 4.415-4.61 2.824 0 3.897 2.172 3.897 4.309 0 .46-.054.866-.09 1.06h-5.631zM110.028 94.548c0-1.272-.018-2.103-.072-2.844h2.324l.107 1.589h.072c.447-1.27 1.5-1.801 2.359-1.801.25 0 .375.017.572.053v2.527a4.065 4.065 0 0 0-.732-.072c-1.001 0-1.682.53-1.86 1.36a3.185 3.185 0 0 0-.053.602v4.38h-2.717v-5.794M121.271 96.26c-1.429 0-2.538.337-2.538 1.362 0 .69.465 1.023 1.072 1.023.663 0 1.234-.442 1.412-.988.037-.142.054-.3.054-.46v-.937zm2.629 1.998c0 .81.035 1.606.142 2.083h-2.449l-.16-.865h-.055c-.57.688-1.465 1.06-2.502 1.06-1.769 0-2.824-1.273-2.824-2.65 0-2.243 2.038-3.303 5.13-3.303v-.106c0-.477-.251-1.13-1.59-1.13-.895 0-1.842.3-2.414.653l-.5-1.73c.607-.336 1.805-.778 3.396-.778 2.914 0 3.826 1.695 3.826 3.744v3.022zM128.958 89.372v2.332h1.949v1.978h-1.949v3.126c0 1.043.269 1.52 1.073 1.52.375 0 .554-.017.805-.07l.016 2.03c-.338.123-1 .23-1.75.23-.877 0-1.61-.3-2.056-.741-.5-.514-.751-1.343-.751-2.562v-3.533h-1.162v-1.978h1.162v-1.608l2.663-.724M132.48 100.341h2.718v-8.637h-2.718v8.637zm2.806-11.04c0 .742-.553 1.343-1.465 1.343-.858 0-1.412-.6-1.412-1.343 0-.758.571-1.34 1.448-1.34.876 0 1.412.582 1.43 1.34zM139.684 96.014c0 1.483.626 2.595 1.788 2.595 1.073 0 1.733-1.041 1.733-2.613 0-1.271-.5-2.579-1.733-2.579-1.288 0-1.788 1.324-1.788 2.597zm6.328-.088c0 3.16-2.272 4.61-4.613 4.61-2.555 0-4.522-1.66-4.522-4.451 0-2.81 1.859-4.593 4.684-4.593 2.663 0 4.45 1.819 4.45 4.434zM147.692 94.458c0-1.076-.035-1.977-.072-2.754h2.36l.126 1.2h.053c.358-.564 1.233-1.395 2.7-1.395 1.788 0 3.127 1.185 3.127 3.727v5.105h-2.717v-4.787c0-1.113-.393-1.872-1.377-1.872-.75 0-1.196.513-1.394 1.006-.07.177-.089.423-.089.672v4.981h-2.717v-5.883" fill="#042545"/>
    </g>
</svg>
